<svg version="1.1" id="Layer_1" xmlns="http://www.w3.org/2000/svg" xmlns:xlink="http://www.w3.org/1999/xlink" x="0px" y="0px"
	 width="100%" viewBox="0 0 400 400" enable-background="new 0 0 400 400" xml:space="preserve">
<path fill="#FFFFFF" opacity="1.000000" stroke="none" 
	d="
M227.000000,401.000000 
	C151.356812,401.000000 76.213638,401.000000 1.035228,401.000000 
	C1.035228,267.731812 1.035228,134.463623 1.035228,1.097718 
	C134.226471,1.097718 267.453033,1.097718 400.839783,1.097718 
	C400.839783,134.333176 400.839783,267.666565 400.839783,401.000000 
	C343.130371,401.000000 285.315186,401.000000 227.000000,401.000000 
M228.780106,305.087097 
	C240.452103,306.096313 251.614807,304.047211 262.519531,299.867950 
	C291.792358,288.649231 312.000580,255.268112 307.766022,224.880234 
	C301.840424,182.357025 264.641998,154.584412 222.207474,161.001587 
	C186.304611,166.431015 160.220856,197.832932 160.871368,234.843399 
	C161.492386,270.176147 189.555588,300.694916 225.756256,304.854034 
	C226.512222,304.833008 227.268204,304.812012 228.780106,305.087097 
M141.281799,256.485535 
	C141.281799,208.224014 141.281799,159.962479 141.281799,111.564911 
	C130.164871,111.564911 119.613564,111.564911 109.040085,111.564911 
	C109.040085,163.998993 109.040085,216.080826 109.040085,268.275330 
	C119.862381,268.275330 130.410416,268.275330 141.281738,268.275330 
	C141.281738,264.439758 141.281738,260.958618 141.281799,256.485535 
z"/>
<path fill="#1F1E24" opacity="1.000000" stroke="none" 
	d="
M141.281769,256.981506 
	C141.281738,260.958618 141.281738,264.439758 141.281738,268.275330 
	C130.410416,268.275330 119.862381,268.275330 109.040085,268.275330 
	C109.040085,216.080826 109.040085,163.998993 109.040085,111.564911 
	C119.613564,111.564911 130.164871,111.564911 141.281799,111.564911 
	C141.281799,159.962479 141.281799,208.224014 141.281769,256.981506 
z"/>
<path fill="#2770D9" opacity="1.000000" stroke="none" 
	d="
M225.033035,304.619354 
	C189.555588,300.694916 161.492386,270.176147 160.871368,234.843399 
	C160.220856,197.832932 186.304611,166.431015 222.207474,161.001587 
	C264.641998,154.584412 301.840424,182.357025 307.766022,224.880234 
	C312.000580,255.268112 291.792358,288.649231 262.519531,299.867950 
	C251.614807,304.047211 240.452103,306.096313 228.717300,304.682739 
	C232.775787,303.860870 236.897095,303.443359 241.422119,303.022675 
	C244.885132,302.353973 247.944458,301.688416 251.398010,301.024963 
	C253.866821,300.368866 255.941376,299.710632 258.400391,299.040955 
	C264.205139,295.711365 269.625427,292.393280 275.417938,289.060547 
	C277.866058,287.712463 279.941925,286.379028 282.314850,284.892517 
	C287.368500,279.680695 293.983826,275.822754 293.753082,267.417389 
	C297.728394,268.630615 298.395844,265.856018 299.149078,262.684937 
	C299.872894,260.577087 300.445160,258.789185 301.021729,256.598083 
	C302.087799,253.412308 303.674377,250.710556 304.117584,247.832748 
	C305.747742,237.247162 306.317749,226.608002 303.989075,215.625015 
	C302.674011,211.814346 301.355377,208.391098 299.999115,204.616028 
	C298.998383,202.487595 298.035248,200.710968 296.915070,198.627502 
	C289.779083,184.638763 278.860199,175.227310 264.621216,168.965759 
	C261.841400,168.254807 259.432190,167.590790 256.888977,166.632446 
	C254.151260,165.376877 251.594116,163.770340 248.934830,163.578262 
	C241.637695,163.051239 234.297638,163.118378 226.568497,163.009399 
	C224.714417,163.369141 223.245926,163.594696 221.821884,163.983200 
	C214.778046,165.904770 207.189255,166.790955 200.838928,170.069107 
	C191.066605,175.113754 182.589966,182.459747 176.118927,191.484970 
	C168.581177,201.997940 163.275665,213.522873 163.630157,227.218887 
	C160.583450,232.770477 162.081467,237.894333 163.974045,243.333405 
	C163.969513,244.107147 163.971985,244.549316 163.970490,245.381866 
	C164.297150,247.208252 164.627792,248.644241 164.969238,250.467361 
	C166.297913,254.241226 167.615784,257.627960 168.954681,261.388397 
	C172.435349,266.915833 175.616913,272.289093 179.451218,277.147156 
	C182.062653,280.455811 185.973267,282.733704 188.616501,286.023956 
	C192.992172,291.470703 198.811539,294.428009 205.207550,297.300659 
	C211.055130,299.059662 216.699310,300.459930 222.267227,302.116516 
	C223.342224,302.436371 224.118805,303.759186 225.033035,304.619354 
z"/>
<path fill="#0764F4" opacity="1.000000" stroke="none" 
	d="
M225.394653,304.736694 
	C224.118805,303.759186 223.342224,302.436371 222.267227,302.116516 
	C216.699310,300.459930 211.055130,299.059662 205.459747,297.013275 
	C211.530334,292.927826 218.724915,295.299591 222.733231,297.850922 
	C227.579941,300.935852 231.306305,300.111847 235.830475,300.164185 
	C237.570572,300.184326 239.289703,302.018341 241.018402,303.025848 
	C236.897095,303.443359 232.775787,303.860870 228.339325,304.534729 
	C227.268204,304.812012 226.512222,304.833008 225.394653,304.736694 
z"/>
<path fill="#0065FE" opacity="1.000000" stroke="none" 
	d="
M241.422104,303.022705 
	C239.289703,302.018341 237.570572,300.184326 235.830475,300.164185 
	C231.306305,300.111847 227.579941,300.935852 222.733231,297.850922 
	C218.724915,295.299591 211.530334,292.927826 205.229767,296.743866 
	C198.811539,294.428009 192.992172,291.470703 188.616501,286.023956 
	C185.973267,282.733704 182.062653,280.455811 179.451218,277.147156 
	C175.616913,272.289093 172.435349,266.915833 169.349915,261.304443 
	C170.148224,258.867798 171.044785,256.849792 170.885239,254.919037 
	C170.647934,252.047363 169.230286,249.254913 169.114761,246.396423 
	C168.988358,243.268188 167.478241,242.793076 165.158142,242.646194 
	C164.844315,237.184860 164.378281,232.074890 163.912231,226.964920 
	C163.275665,213.522873 168.581177,201.997940 176.118927,191.484970 
	C182.589966,182.459747 191.066605,175.113754 200.838928,170.069107 
	C207.189255,166.790955 214.778046,165.904770 221.821884,163.983200 
	C223.245926,163.594696 224.714417,163.369141 226.856049,163.314667 
	C229.503250,163.707214 231.468002,163.768066 233.407547,164.021729 
	C235.774338,164.331268 238.152740,164.668198 240.467896,165.232315 
	C245.246841,166.396774 249.968414,167.804504 254.767883,168.866867 
	C255.348007,168.995285 256.263123,167.610336 257.022980,166.926788 
	C259.432190,167.590790 261.841400,168.254807 264.579193,169.283447 
	C263.731659,170.102005 262.555542,170.555954 261.030121,171.144714 
	C261.728516,171.770798 262.232880,172.611679 262.881836,172.744110 
	C268.831085,173.958221 273.391388,177.191101 277.337158,181.728561 
	C280.159454,184.974075 283.244141,188.131073 286.705902,190.647964 
	C291.805664,194.355789 292.587433,196.076553 290.066956,201.467514 
	C289.512970,202.652374 289.337921,204.014404 288.988373,205.294861 
	C289.584137,205.724411 290.179871,206.153976 290.775635,206.583542 
	C292.874481,204.033829 294.973328,201.484131 297.072144,198.934387 
	C298.035248,200.710968 298.998383,202.487595 299.830688,204.983673 
	C298.019989,212.688843 298.398621,213.599655 303.985474,216.012436 
	C306.317749,226.608002 305.747742,237.247162 304.117584,247.832748 
	C303.674377,250.710556 302.087799,253.412308 300.615173,256.598083 
	C297.711090,257.164154 294.826233,257.182098 295.220459,260.690491 
	C295.321808,261.592072 297.677521,262.240295 298.997559,263.004883 
	C298.395844,265.856018 297.728394,268.630615 293.753082,267.417389 
	C293.983826,275.822754 287.368500,279.680695 282.185059,284.581329 
	C281.959229,282.787262 282.160309,281.151276 282.349579,279.611511 
	C280.185089,278.020050 278.070099,276.464966 275.732269,274.746063 
	C275.340454,275.977570 275.174561,276.280975 275.165222,276.589081 
	C275.155640,276.903900 275.192230,277.342834 275.392517,277.523102 
	C278.820526,280.608246 280.352448,283.604553 275.342560,286.704285 
	C274.917389,286.967377 275.129578,288.260529 275.045715,289.075195 
	C269.625427,292.393280 264.205139,295.711365 258.363953,298.690857 
	C256.851501,297.342377 255.759949,296.332581 254.668396,295.322754 
	C253.446854,297.222809 252.225311,299.122833 251.003784,301.022858 
	C247.944458,301.688416 244.885132,302.353973 241.422104,303.022705 
z"/>
<path fill="#0564F6" opacity="1.000000" stroke="none" 
	d="
M296.915100,198.627533 
	C294.973328,201.484131 292.874481,204.033829 290.775635,206.583542 
	C290.179871,206.153976 289.584137,205.724411 288.988373,205.294861 
	C289.337921,204.014404 289.512970,202.652374 290.066956,201.467514 
	C292.587433,196.076553 291.805664,194.355789 286.705902,190.647964 
	C283.244141,188.131073 280.159454,184.974075 277.337158,181.728561 
	C273.391388,177.191101 268.831085,173.958221 262.881836,172.744110 
	C262.232880,172.611679 261.728516,171.770798 261.030121,171.144714 
	C262.555542,170.555954 263.731659,170.102005 264.949829,169.330383 
	C278.860199,175.227310 289.779083,184.638763 296.915100,198.627533 
z"/>
<path fill="#0364F6" opacity="1.000000" stroke="none" 
	d="
M256.888977,166.632446 
	C256.263123,167.610336 255.348007,168.995285 254.767883,168.866867 
	C249.968414,167.804504 245.246841,166.396774 240.467896,165.232315 
	C238.152740,164.668198 235.774338,164.331268 233.407547,164.021729 
	C231.468002,163.768066 229.503250,163.707214 227.262115,163.255615 
	C234.297638,163.118378 241.637695,163.051239 248.934830,163.578262 
	C251.594116,163.770340 254.151260,165.376877 256.888977,166.632446 
z"/>
<path fill="#0564F5" opacity="1.000000" stroke="none" 
	d="
M165.005936,242.997559 
	C167.478241,242.793076 168.988358,243.268188 169.114761,246.396423 
	C169.230286,249.254913 170.647934,252.047363 170.885239,254.919037 
	C171.044785,256.849792 170.148224,258.867798 169.328918,260.930725 
	C167.615784,257.627960 166.297913,254.241226 165.116913,250.129028 
	C164.827332,247.932877 164.400909,246.462173 163.974472,244.991486 
	C163.971985,244.549316 163.969513,244.107147 164.230377,243.332550 
	C164.664459,242.999268 164.835190,242.998413 165.005936,242.997559 
z"/>
<path fill="#0565F4" opacity="1.000000" stroke="none" 
	d="
M275.417938,289.060547 
	C275.129578,288.260529 274.917389,286.967377 275.342560,286.704285 
	C280.352448,283.604553 278.820526,280.608246 275.392517,277.523102 
	C275.192230,277.342834 275.155640,276.903900 275.165222,276.589081 
	C275.174561,276.280975 275.340454,275.977570 275.732269,274.746063 
	C278.070099,276.464966 280.185089,278.020050 282.349579,279.611511 
	C282.160309,281.151276 281.959229,282.787262 281.888000,284.734436 
	C279.941925,286.379028 277.866058,287.712463 275.417938,289.060547 
z"/>
<path fill="#0663F5" opacity="1.000000" stroke="none" 
	d="
M165.158142,242.646194 
	C164.835190,242.998413 164.664459,242.999268 164.237396,243.000977 
	C162.081467,237.894333 160.583450,232.770477 163.630157,227.218887 
	C164.378281,232.074890 164.844315,237.184860 165.158142,242.646194 
z"/>
<path fill="#0566F2" opacity="1.000000" stroke="none" 
	d="
M303.989075,215.625015 
	C298.398621,213.599655 298.019989,212.688843 299.868286,205.335480 
	C301.355377,208.391098 302.674011,211.814346 303.989075,215.625015 
z"/>
<path fill="#0366F2" opacity="1.000000" stroke="none" 
	d="
M251.398026,301.024963 
	C252.225311,299.122833 253.446854,297.222809 254.668396,295.322754 
	C255.759949,296.332581 256.851501,297.342377 257.979492,298.702301 
	C255.941376,299.710632 253.866821,300.368866 251.398026,301.024963 
z"/>
<path fill="#0663F6" opacity="1.000000" stroke="none" 
	d="
M299.149078,262.684937 
	C297.677521,262.240295 295.321808,261.592072 295.220459,260.690491 
	C294.826233,257.182098 297.711090,257.164154 300.610870,257.001282 
	C300.445160,258.789185 299.872894,260.577087 299.149078,262.684937 
z"/>
<path fill="#0065FE" opacity="1.000000" stroke="none" 
	d="
M163.970490,245.381866 
	C164.400909,246.462173 164.827332,247.932877 165.106110,249.741913 
	C164.627792,248.644241 164.297150,247.208252 163.970490,245.381866 
z"/>
</svg>